<?xml version="1.0" encoding="UTF-8" standalone="no"?>
<!-- Created with Inkscape (http://www.inkscape.org/) -->

<svg
   xmlns:dc="http://purl.org/dc/elements/1.1/"
   xmlns:cc="http://creativecommons.org/ns#"
   xmlns:rdf="http://www.w3.org/1999/02/22-rdf-syntax-ns#"
   xmlns:svg="http://www.w3.org/2000/svg"
   xmlns="http://www.w3.org/2000/svg"
   xmlns:sodipodi="http://sodipodi.sourceforge.net/DTD/sodipodi-0.dtd"
   xmlns:inkscape="http://www.inkscape.org/namespaces/inkscape"
   width="1000"
   height="240"
   id="svg2"
   version="1.1"
   inkscape:version="0.48.5 r10040"
   sodipodi:docname="logo.svg"
   inkscape:export-filename="/home/samu/Projects/jobcontrol/.misc/logo-large.png"
   inkscape:export-xdpi="90"
   inkscape:export-ydpi="90">
  <defs
     id="defs4" />
  <sodipodi:namedview
     id="base"
     pagecolor="#002a35"
     bordercolor="#666666"
     borderopacity="1.0"
     inkscape:pageopacity="1"
     inkscape:pageshadow="2"
     inkscape:zoom="1"
     inkscape:cx="462.16385"
     inkscape:cy="82.362784"
     inkscape:document-units="px"
     inkscape:current-layer="layer1"
     showgrid="false"
     inkscape:window-width="1918"
     inkscape:window-height="1059"
     inkscape:window-x="1200"
     inkscape:window-y="1219"
     inkscape:window-maximized="1" />
  <metadata
     id="metadata7">
    <rdf:RDF>
      <cc:Work
         rdf:about="">
        <dc:format>image/svg+xml</dc:format>
        <dc:type
           rdf:resource="http://purl.org/dc/dcmitype/StillImage" />
        <dc:title></dc:title>
      </cc:Work>
    </rdf:RDF>
  </metadata>
  <g
     inkscape:label="Layer 1"
     inkscape:groupmode="layer"
     id="layer1"
     transform="translate(0,-812.36218)">
    <path
       style="font-size:40px;font-style:normal;font-variant:normal;font-weight:500;font-stretch:normal;text-align:start;line-height:114.99999762%;letter-spacing:0px;word-spacing:0px;writing-mode:lr-tb;text-anchor:start;fill:#2aa097;fill-opacity:1;stroke:none;font-family:Inconsolata;-inkscape-font-specification:Inconsolata Medium"
       d="m 41.21875,831.36217 0,202.00003 15.5625,0 0,-6.7188 -9.3125,0 0,-188.56248 9.3125,0 0,-6.71875 -15.5625,0 z m 159.09375,0 0,6.71875 9.3125,0 0,188.56248 -9.3125,0 0,6.7188 15.5625,0 0,-202.00003 -15.5625,0 z"
       id="path4070"
       inkscape:connector-curvature="0" />
    <path
       style="font-size:40px;font-style:normal;font-variant:normal;font-weight:500;font-stretch:normal;text-align:start;line-height:114.99999762%;letter-spacing:0px;word-spacing:0px;writing-mode:lr-tb;text-anchor:start;fill:#2aa097;fill-opacity:1;stroke:none;font-family:Inconsolata;-inkscape-font-specification:Inconsolata Medium"
       d="m 88.609375,870.03406 c -3.959996,0 -8.03125,4.88375 -8.03125,12.84375 0,8.07999 4.102504,12.71875 8.0625,12.71875 3.599997,0 7.875,-3.9 7.875,-12.5 0,-8.48 -4.066253,-13.0625 -7.90625,-13.0625 z m 79.999995,0 c -3.96,0 -8.03125,4.88375 -8.03125,12.84375 0,8.07999 4.1025,12.71875 8.0625,12.71875 3.59999,0 7.875,-3.9 7.875,-12.5 0,-8.48 -4.06626,-13.0625 -7.90625,-13.0625 z m -40,0.1875 -6.53124,3.375 0.65625,1.5625 5,-1.46875 0,21.46875 2.78124,0 0,-24.9375 -1.90625,0 z m -40.031245,2.25 c 1.359999,0 2.826251,1.08125 3.90625,3.28125 l -8.75,11.375 c -0.359999,-1.4 -0.5625,-2.95876 -0.5625,-4.71875 0,-6.4 2.926253,-9.9375 5.40625,-9.9375 z m 79.999995,0 c 1.36001,0 2.82625,1.08125 3.90625,3.28125 l -8.75,11.375 c -0.36,-1.4 -0.5625,-2.95876 -0.5625,-4.71875 0,-6.4 2.92625,-9.9375 5.40625,-9.9375 z m -75.156245,5.9375 c 0.359999,1.39999 0.5,3.07125 0.5,5.03125 0,6.95999 -2.987502,9.59375 -5.1875,9.59375 -1.479998,0 -3.013751,-1.17501 -4.09375,-3.375 l 8.78125,-11.25 z m 79.999995,0 c 0.36001,1.39999 0.5,3.07125 0.5,5.03125 0,6.95999 -2.9875,9.59375 -5.1875,9.59375 -1.48,0 -3.01375,-1.17501 -4.09375,-3.375 l 8.78125,-11.25 z m -84.812495,41.40625 c -3.959996,0 -8.03125,4.88377 -8.03125,12.84375 0,8.07999 4.102504,12.71875 8.0625,12.71875 3.599997,0 7.875,-3.93125 7.875,-12.53125 0,-8.47999 -4.066253,-13.03125 -7.90625,-13.03125 z m 39.999995,0 c -3.95999,0 -8.03124,4.88377 -8.03124,12.84375 0,8.07999 4.1025,12.71875 8.06249,12.71875 3.59999,0 7.875,-3.93125 7.875,-12.53125 0,-8.47999 -4.06626,-13.03125 -7.90625,-13.03125 z m 40,0.15625 -6.53125,3.40625 0.65625,1.5625 5,-1.5 0,21.5 2.78125,0 0,-24.96875 -1.90625,0 z m -80.031245,2.28125 c 1.359999,0 2.826251,1.08125 3.90625,3.28125 l -8.75,11.34375 c -0.359999,-1.4 -0.5625,-2.95875 -0.5625,-4.71875 0,-6.39999 2.926253,-9.90625 5.40625,-9.90625 z m 39.999995,0 c 1.36001,0 2.82625,1.08125 3.90625,3.28125 l -8.74999,11.34375 c -0.36,-1.4 -0.5625,-2.95875 -0.5625,-4.71875 0,-6.39999 2.92624,-9.90625 5.40624,-9.90625 z m -35.156245,5.90625 c 0.359999,1.4 0.5,3.1025 0.5,5.0625 0,6.95999 -2.987502,9.59375 -5.1875,9.59375 -1.479998,0 -3.013751,-1.20625 -4.09375,-3.40625 l 8.78125,-11.25 z m 39.999995,0 c 0.36001,1.4 0.5,3.1025 0.5,5.0625 0,6.95999 -2.9875,9.59375 -5.1875,9.59375 -1.47999,0 -3.01375,-1.20625 -4.09374,-3.40625 l 8.78124,-11.25 z m -44.812495,41.5625 -6.53125,3.40625 0.65625,1.5625 5,-1.46875 0,21.46875 2.78125,0 0,-24.96875 -1.90625,0 z m 39.999995,0 -6.53124,3.40625 0.65625,1.5625 5,-1.46875 0,21.46875 2.78124,0 0,-24.96875 -1.90625,0 z m 40,0 -6.53125,3.40625 0.65625,1.5625 5,-1.46875 0,21.46875 2.78125,0 0,-24.96875 -1.90625,0 z"
       id="path3800"
       inkscape:connector-curvature="0" />
    <path
       style="font-size:40px;font-style:normal;font-variant:normal;font-weight:500;font-stretch:normal;text-align:start;line-height:114.99999762%;letter-spacing:0px;word-spacing:0px;writing-mode:lr-tb;text-anchor:start;fill:#2aa097;fill-opacity:1;stroke:none;font-family:Inconsolata;-inkscape-font-specification:Inconsolata Medium"
       d="m 281.53125,851.52166 0,26.78125 6.25,0 0,-20.0625 17.8125,0 0,92.8125 -41.875,0 0,-24.1875 -6.25,0 0,30.90625 54.375,0 0,-106.25 z m 48.125,0 0,106.25 54.375,0 0,-106.25 z m 72.1875,0 0,106.25 54.375,0 0,-56.5 -24.0625,0 0,-49.75 z m 72.1875,0 0,106.25 51.625,0 0,-6.71875 -45.375,0 0,-92.8125 45.375,0 0,-6.71875 z m 72.1875,0 0,106.25 54.375,0 0,-106.25 z m 72.1875,0 0,102.875 6.25,0 0,-96.15625 17.8125,0 0,49.75 24.0625,0 0,46.40625 6.25,0 0,-99.53125 -6.25,0 0,46.40625 -17.8125,0 0,-49.75 z m 75.6875,0 0,6.71875 20.5625,0 0,96.15625 6.25,0 0,-96.15625 21.3125,0 0,-6.71875 z m 68.6875,0 0,102.875 6.25,0 0,-46.40625 17.8125,0 0,49.78125 27.5625,0 0,-6.71875 -21.3125,0 0,-43.0625 24.0625,0 0,-56.46875 z m 72.1875,0 0,106.25 54.375,0 0,-106.25 z m 72.1875,3.34375 0,102.90625 51.625,0 0,-6.71875 -45.375,0 0,-96.1875 z m -571.25,3.375 41.875,0 0,92.8125 -41.875,0 z m 72.1875,0 17.8125,0 0,43.03125 -17.8125,0 z m 144.375,0 41.875,0 0,92.8125 -41.875,0 z m 216.5625,0 41.875,0 0,43.03125 -41.875,0 z m 72.1875,0 41.875,0 0,92.8125 -41.875,0 z m -433.125,49.75 41.875,0 0,43.0625 -41.875,0 z"
       id="path3808"
       inkscape:connector-curvature="0"
       sodipodi:nodetypes="cccccccccccccccccccccccccccccccccccccccccccccccccccccccccccccccccccccccccccccccccccccccccccccccccccccccccccccccccccccc" />
    <text
       sodipodi:linespacing="115%"
       id="text2997"
       y="1006.2027"
       x="408.08499"
       style="font-size:40px;font-style:normal;font-variant:normal;font-weight:500;font-stretch:normal;text-align:start;line-height:114.99999762%;letter-spacing:0px;word-spacing:0px;writing-mode:lr-tb;text-anchor:start;opacity:0.5;fill:#2aa097;fill-opacity:1;stroke:none;font-family:Inconsolata;-inkscape-font-specification:Inconsolata Medium"
       xml:space="preserve"><tspan
         id="tspan3007"
         y="1006.2027"
         x="408.08499"
         sodipodi:role="line">(The Matrix has you)</tspan><tspan
         id="tspan3009"
         y="1052.2026"
         x="408.08499"
         sodipodi:role="line" /></text>
  </g>
</svg>
